<svg width="179" height="26" viewBox="0 0 179 26" fill="none" xmlns="http://www.w3.org/2000/svg">
<path d="M5.0253 25.515H0.365356L10.7722 1.00686H15.6576L26.2842 25.515H21.3987L18.6293 18.8257H10.46L12.021 14.8884H16.9527L13.1022 5.68415L5.0253 25.515Z" fill="white"/>
<path d="M42.7327 1.00686V4.92099H35.7023V25.515H31.1638V4.92099H24.1334V1.00686H42.7327Z" fill="white"/>
<path d="M53.0125 25.515V1.00686H62.6099C70.7041 1.00686 74.7608 4.86124 74.7801 12.57C74.7801 21.1923 70.7233 25.5015 62.6099 25.4976L53.0125 25.515ZM62.6099 21.5719C67.6977 21.5719 70.2396 18.5771 70.2358 12.5874C70.2358 7.47644 67.6938 4.92099 62.6099 4.92099H57.5568V21.5719H62.6099Z" fill="white"/>
<path d="M83.1749 1.00686V25.515H78.6364V1.00686H83.1749Z" fill="white"/>
<path d="M107.856 24.3818C105.497 25.3201 102.971 25.763 100.433 25.6826C91.7837 25.6826 87.4591 21.4274 87.4591 12.9169C87.4591 4.8651 91.8589 0.837265 100.658 0.833411C103.111 0.79132 105.55 1.19689 107.856 2.0302V6.1409C105.69 5.21693 103.355 4.75044 101 4.77066C95.1139 4.77066 92.1711 7.48415 92.1711 12.9111C92.1711 18.7968 94.9482 21.7377 100.502 21.7338C101.453 21.7175 102.397 21.5795 103.312 21.3233V14.2004H107.856V24.3818Z" fill="white"/>
<path d="M116.679 1.00686V25.515H112.141V1.00686H116.679Z" fill="white"/>
<path d="M137.845 1.00686V4.92099H130.821V25.515H126.277V4.92099H119.229V1.00686H137.845Z" fill="white"/>
<path d="M140.366 25.515H135.706L146.113 1.00686H150.999L161.619 25.515H156.74L153.918 18.8257H145.824L147.385 14.8884H152.323L148.466 5.68415L140.366 25.515Z" fill="white"/>
<path d="M169.158 1.00686V21.5719H178.889V25.515H164.614V1.00686H169.158Z" fill="white"/>
</svg>
